:version 1.10
:name ASF
:units
  mass 1
  length 1
  angle deg
:documentation
  ASF file generated by Kaydara
:root
  axis xyz
  order  tx ty tz rx ry rz
  position 0 0 0
  orientation 0 0 0
:bonedata
  begin
    id 1
    name RightUpLegDummy
    direction -0.65628 -0.754516 0.00165102
    length 4.76918
    axis 0 0 0 xyz
  end
  begin
    id 2
    name RightUpLeg
    direction -0.145584 -0.923362 0.355256
    length 17.9961
    axis -24.7611 -13.1006 1.78531 xyz
    dof rx ry rz
  end
  begin
    id 3
    name RightLeg
    direction 0.263379 0.172355 -0.949171
    length 13.3386
    axis 89.6202 -21.1929 12.3855 xyz
    dof rx ry rz
  end
  begin
    id 4
    name RightFoot
    direction 0.224283 -0.968777 -0.105675
    length 5.86697
    axis 56.995 -39.6905 17.3365 xyz
    dof rx ry rz
  end
  begin
    id 5
    name RightToes
    direction -0.0806345 -0.9037 0.420506
    length 4.75197
    axis 146.825 -39.7828 17.6019 xyz
    dof rx ry rz
  end
  begin
    id 6
    name SpineDummy
    direction -3.39852e-014 1 9.33296e-014
    length 8.13779
    axis 0 0 0 xyz
  end
  begin
    id 7
    name Spine
    direction -0.156609 0.733703 0.661176
    length 7.14978
    axis 41.2365 5.68757 17.0844 xyz
    dof rx ry rz
  end
  begin
    id 8
    name Spine1
    direction 0 0 0
    length 0
    axis 42.8809 47.8308 -3.36039 xyz
    dof rx ry rz
  end
  begin
    id 9
    name HEadDummy
    direction 0.546431 0.701947 0.456819
    length 3.55512
    axis 42.8809 47.8308 -3.36039 xyz
  end
  begin
    id 10
    name HEad
    direction 0.23444 0.828559 0.508457
    length 7.35827
    axis 51.1864 49.2662 27.4903 xyz
    dof rx ry rz
  end
  begin
    id 11
    name LeftShoulder1Dummy
    direction 0.431183 0.475873 -0.766568
    length 2.49352
    axis 42.8809 47.8308 -3.36039 xyz
  end
  begin
    id 12
    name LeftShoulder1
    direction 0.268187 -0.383402 -0.883786
    length 4.48604
    axis -119.517 0.106469 35.1736 xyz
    dof rx ry rz
  end
  begin
    id 13
    name LeftArm
    direction 0.380567 -0.703221 -0.600541
    length 10.1142
    axis -5.41825 36.2925 7.8293 xyz
    dof rx ry rz
  end
  begin
    id 14
    name LeftForeArm
    direction 0.541071 -0.732356 -0.413396
    length 9.39839
    axis 4.65387 33.7604 7.81644 xyz
    dof rx ry rz
  end
  begin
    id 15
    name LeftHand
    direction 0.847511 -0.389379 -0.360707
    length 3.66142
    axis 7.65593 21.1436 -24.6758 xyz
    dof rx ry rz
  end
  begin
    id 16
    name RightShoulderDummy
    direction -0.692546 0.541855 0.476208
    length 2.49352
    axis 42.8809 47.8308 -3.36039 xyz
  end
  begin
    id 17
    name RightShoulder
    direction -0.870808 -0.316653 0.376065
    length 4.48602
    axis 141.571 51.133 -100.254 xyz
    dof rx ry rz
  end
  begin
    id 18
    name RightArm
    direction 0.366897 -0.87275 0.322015
    length 10.1142
    axis 92.3258 71.2036 138.917 xyz
    dof rx ry rz
  end
  begin
    id 19
    name RightForeArm
    direction 0.702487 -0.694568 0.155197
    length 9.39835
    axis 153.863 41.5092 -176.604 xyz
    dof rx ry rz
  end
  begin
    id 20
    name RightHand
    direction 0.79502 -0.601276 0.0800636
    length 3.66142
    axis 154.247 4.59222 142.9 xyz
    dof rx ry rz
  end
  begin
    id 21
    name LeftUpLegDummy
    direction 0.65628 -0.754516 0.00165102
    length 4.76919
    axis 0 0 0 xyz
  end
  begin
    id 22
    name LeftUpLeg
    direction -0.1277 -0.689368 0.713067
    length 17.9961
    axis -48.3385 -17.8675 0.791927 xyz
    dof rx ry rz
  end
  begin
    id 23
    name LeftLeg
    direction 0.109849 -0.991246 -0.0732378
    length 13.3386
    axis -2.05791 -7.30784 1.72042 xyz
    dof rx ry rz
  end
  begin
    id 24
    name LeftFoot
    direction 0.0448355 -0.272614 0.961078
    length 5.86697
    axis -18.7733 -7.89606 10.2113 xyz
    dof rx ry rz
  end
  begin
    id 25
    name LeftToes
    direction -0.18506 0.293668 0.937823
    length 4.75197
    axis 71.2267 -7.89606 10.2113 xyz
    dof rx ry rz
  end
:hierarchy
  begin
    root RightUpLegDummy SpineDummy LeftUpLegDummy
    RightUpLegDummy RightUpLeg
    RightUpLeg RightLeg
    RightLeg RightFoot
    RightFoot RightToes
    SpineDummy Spine
    Spine Spine1
    Spine1 HEadDummy LeftShoulder1Dummy RightShoulderDummy
    HEadDummy HEad
    LeftShoulder1Dummy LeftShoulder1
    LeftShoulder1 LeftArm
    LeftArm LeftForeArm
    LeftForeArm LeftHand
    RightShoulderDummy RightShoulder
    RightShoulder RightArm
    RightArm RightForeArm
    RightForeArm RightHand
    LeftUpLegDummy LeftUpLeg
    LeftUpLeg LeftLeg
    LeftLeg LeftFoot
    LeftFoot LeftToes
  end

:SAMPLES-PER-SECOND 30
:FULLY-SPECIFIED
:DEGREES
382
root  -8.17611 37.5615 -4.77277 56.6728 -64.1162 149.348
RightUpLeg  12.8928 6.1352 -34.6411
RightLeg  -98.5949 -12.3563 -9.45029
RightFoot  36.7027 -12.5379 1.11108
RightToes  -1.27222e-014 -6.36111e-015 6.36111e-015
Spine  -16.1678 0.374809 -0.429811
Spine1  -23.3418 -6.81917 24.6664
HEad  44.8779 -38.9876 -41.1565
LeftShoulder1  6.36111e-015 -1.33558e-015 6.49777e-015
LeftArm  -19.3446 -32.5353 86.5874
LeftForeArm  26.5161 -9.73577 -9.40464
LeftHand  -2.28959 -5.6744 -2.25705
RightShoulder  -4.77083e-015 -6.36111e-015 -3.18055e-015
RightArm  7.7827 12.4276 -84.3764
RightForeArm  -46.3989 3.96729 -23.959
RightHand  10.9392 -13.6842 -32.0978
LeftUpLeg  41.5808 2.09371 53.1779
LeftLeg  -39.381 5.50569 -8.91255
LeftFoot  7.37664 -0.96309 2.60057
LeftToes  9.54166e-015 -1.91609e-011 -2.3878e-011
383
root  -7.50201 38.1215 -4.79112 112.881 -68.9537 99.8653
RightUpLeg  8.09649 2.09331 -35.218
RightLeg  -98.9273 -11.7266 -10.6165
RightFoot  37.0756 -12.2183 0.607568
RightToes  -1.27222e-014 -6.36111e-015 6.36111e-015
Spine  -22.9349 -0.993791 -0.25999
Spine1  -26.8831 -10.8073 20.51
HEad  45.4255 -40.5542 -41.2657
LeftShoulder1  6.36111e-015 -1.33558e-015 6.49777e-015
LeftArm  -14.1691 -6.74113 66.3332
LeftForeArm  27.1965 -24.2753 -2.18608
LeftHand  24.0941 27.8388 32.446
RightShoulder  -4.77083e-015 -6.36111e-015 -3.18055e-015
RightArm  5.06769 21.632 -90.217
RightForeArm  -34.1985 9.05303 -25.466
RightHand  8.3364 -12.1979 -25.1023
LeftUpLeg  39.2295 3.53277 51.2655
LeftLeg  -42.0074 6.53722 -13.0364
LeftFoot  5.03261 -0.914092 2.65767
LeftToes  9.54166e-015 -1.91609e-011 -2.3878e-011
384
root  -7.16663 38.0363 -5.47136 156.077 -57.9926 63.2402
RightUpLeg  2.21528 -0.711636 -34.577
RightLeg  -96.8273 -11.3143 -12.1326
RightFoot  34.221 -10.8645 0.350631
RightToes  -1.27222e-014 -6.36111e-015 6.36111e-015
Spine  -28.0471 -3.35275 -1.32595
Spine1  -29.5424 -14.2363 17.2432
HEad  43.3637 -43.129 -38.9009
LeftShoulder1  6.36111e-015 -1.33558e-015 6.49777e-015
LeftArm  1.64113 -27.8019 63.6284
LeftForeArm  10.1688 1.15011 -1.67317
LeftHand  59.0882 11.6924 104.904
RightShoulder  -4.77083e-015 -6.36111e-015 -3.18055e-015
RightArm  1.46205 28.6309 -94.0129
RightForeArm  -8.88705 14.966 -17.1601
RightHand  7.22013 -11.0359 -22.5185
LeftUpLeg  34.8977 3.9566 52.596
LeftLeg  -43.1895 9.13533 -15.5527
LeftFoot  4.70028 -1.51519 4.44975
LeftToes  9.54166e-015 -1.91609e-011 -2.3878e-011
385
root  -7.41568 37.2218 -6.32549 174.211 -43.3992 49.3344
RightUpLeg  -1.08569 3.2711 -34.6523
RightLeg  -96.0344 -11.3687 -9.43809
RightFoot  30.8856 -8.16456 -1.39127
RightToes  -1.27222e-014 -6.36111e-015 6.36111e-015
Spine  -29.8552 -9.96546 -4.36749
Spine1  -33.0749 -18.4866 17.9454
HEad  40.2951 -44.1508 -36.1591
LeftShoulder1  6.36111e-015 -1.33558e-015 6.49777e-015
LeftArm  -4.64441 -30.9878 60.7933
LeftForeArm  45.7189 -30.8055 -22.6937
LeftHand  33.913 -3.48012 122.432
RightShoulder  -4.77083e-015 -6.36111e-015 -3.18055e-015
RightArm  12.6435 46.6715 -86.121
RightForeArm  11.5471 2.41058 0.550112
RightHand  6.36952 -5.8765 -27.839
LeftUpLeg  31.2889 3.71005 56.8194
LeftLeg  -43.0867 11.3771 -16.3379
LeftFoot  3.80352 -1.80153 5.43749
LeftToes  9.54166e-015 -1.91609e-011 -2.3878e-011
386
root  -7.9485 35.9107 -6.54506 -177.194 -31.461 43.7483
RightUpLeg  -2.39087 7.45069 -36.3822
RightLeg  -95.7145 -11.3296 -4.61916
RightFoot  29.2185 -4.60879 -5.12704
RightToes  -1.27222e-014 -6.36111e-015 6.36111e-015
Spine  -29.2758 -19.2991 -8.67845
Spine1  -37.7866 -21.3962 28.1114
HEad  35.0862 -43.3529 -34.5012
LeftShoulder1  6.36111e-015 -1.33558e-015 6.49777e-015
LeftArm  -16.3698 -30.4915 57.0664
LeftForeArm  36.8476 -24.8251 -15.9305
LeftHand  -50.6461 -24.3111 100.663
RightShoulder  -4.77083e-015 -6.36111e-015 -3.18055e-015
RightArm  36.4152 57.9211 -65.7867
RightForeArm  12.1005 -2.8694 13.4048
RightHand  8.35149 -3.52864 -43.007
LeftUpLeg  26.6063 4.00379 61.7424
LeftLeg  -44.3597 11.7088 -16.834
LeftFoot  2.73134 -1.15513 3.6173
LeftToes  9.54166e-015 -1.91609e-011 -2.3878e-011
387
root  -8.27289 34.5308 -5.91895 -170.787 -21.9105 41.2714
RightUpLeg  -5.1613 6.39179 -39.3393
RightLeg  -93.6856 -11.5912 -1.66048
RightFoot  27.9597 -1.11422 -9.20251
RightToes  -1.27222e-014 -6.36111e-015 6.36111e-015
Spine  -26.367 -27.3068 -14.9401
Spine1  -41.2404 -19.8459 45.121
HEad  26.3831 -44.1441 -33.9029
LeftShoulder1  6.36111e-015 -1.33558e-015 6.49777e-015
LeftArm  -29.2003 -29.6559 48.2269
LeftForeArm  10.2266 3.1431 -1.60184
LeftHand  2.73274 6.4606 1.45111
RightShoulder  -4.77083e-015 -6.36111e-015 -3.18055e-015
RightArm  28.7535 55.0065 -65.2924
RightForeArm  20.0584 0.631871 17.5697
RightHand  14.1175 -6.24251 -58.6858
LeftUpLeg  19.8414 6.04834 64.7505
LeftLeg  -46.4469 10.6289 -17.2738
LeftFoot  2.12857 -0.385807 1.25502
LeftToes  9.54166e-015 -1.91609e-011 -2.3878e-011
